<?xml version="1.0" encoding="iso-8859-1"?>
<!-- Generator: Adobe Illustrator 19.0.0, SVG Export Plug-In . SVG Version: 6.00 Build 0)  -->
<svg version="1.1" id="Layer_1" xmlns="http://www.w3.org/2000/svg" xmlns:xlink="http://www.w3.org/1999/xlink" x="0px" y="0px"
	 viewBox="0 0 512 512" style="enable-background:new 0 0 512 512;" xml:space="preserve">
<g>
	<g>
		<path d="M416.183,364.251c21.629-32.078,33.123-69.381,33.123-108.251c0-106.58-86.727-193.306-193.306-193.306
			S62.694,149.42,62.694,256S149.42,449.306,256,449.306c28.735,0,56.633-6.269,82.129-18.286
			c-5.851,8.464-9.195,18.704-9.195,29.362c0,28.421,23.197,51.618,51.618,51.618c28.421,0,51.618-23.197,51.618-51.618
			c0-14.315-5.851-27.69-15.987-37.407V364.251z M380.552,480.653c-11.18,0-20.271-9.091-20.271-20.271
			c0-6.792,3.344-13.061,9.091-16.927c4.389-2.926,7.001-7.837,7.001-13.061c0-2.403,0-80.875,0-83.278h8.464
			c0,9.195,0,73.038,0,83.278c0,5.224,2.612,10.135,7.001,13.061c5.642,3.762,9.091,10.135,9.091,16.927
			C400.823,471.562,391.732,480.653,380.552,480.653z M384.731,315.873h-8.359v-10.553c0-2.299,1.881-4.18,4.18-4.18
			s4.18,1.881,4.18,4.18V315.873z M380.552,269.793c-19.644,0-35.526,15.987-35.526,35.527c0,20.062,0,71.158,0,85.995
			c-26.436,17.45-57.051,26.645-89.025,26.645c-89.339,0-161.959-72.62-161.959-161.959S166.661,94.041,256,94.041
			S417.959,166.661,417.959,256c0,12.434-1.358,24.764-4.18,36.676C408.555,279.092,395.389,269.793,380.552,269.793z"/>
	</g>
</g>
<g>
	<g>
		<path d="M256,0c-8.673,0-15.673,7.001-15.673,15.673v21.943c0,8.568,7.001,15.673,15.673,15.673s15.673-7.001,15.673-15.673
			V15.673C271.673,7.001,264.673,0,256,0z"/>
	</g>
</g>
<g>
	<g>
		<path d="M256,458.71c-8.673,0-15.673,7.001-15.673,15.673v21.943c0,8.673,7.001,15.673,15.673,15.673s15.673-7.001,15.673-15.673
			v-21.943C271.673,465.711,264.673,458.71,256,458.71z"/>
	</g>
</g>
<g>
	<g>
		<path d="M160.392,59.037L149.42,40.02c-4.284-7.523-13.897-10.031-21.42-5.747c-7.523,4.284-10.031,13.897-5.747,21.42
			l10.971,19.017c4.284,7.523,13.897,10.031,21.42,5.747C162.168,76.173,164.676,66.56,160.392,59.037z"/>
	</g>
</g>
<g>
	<g>
		<path d="M74.71,133.224l-19.017-10.971c-7.523-4.284-17.032-1.776-21.42,5.747c-4.284,7.523-1.776,17.032,5.747,21.42
			l19.017,10.971c7.523,4.284,17.032,1.776,21.42-5.747C84.741,147.122,82.233,137.613,74.71,133.224z"/>
	</g>
</g>
<g>
	<g>
		<path d="M471.98,362.58l-19.017-10.971c-7.523-4.284-17.032-1.776-21.42,5.747c-4.284,7.523-1.776,17.032,5.747,21.42
			l19.017,10.971c7.523,4.284,17.032,1.776,21.42-5.747C482.011,376.477,479.504,366.864,471.98,362.58z"/>
	</g>
</g>
<g>
	<g>
		<path d="M37.616,240.327H15.673C7.001,240.327,0,247.327,0,256c0,8.673,7.001,15.673,15.673,15.673h21.943
			c8.568,0,15.673-7.001,15.673-15.673C53.29,247.327,46.289,240.327,37.616,240.327z"/>
	</g>
</g>
<g>
	<g>
		<path d="M496.327,240.327h-21.943c-8.673,0-15.673,7.001-15.673,15.673c0,8.673,7.001,15.673,15.673,15.673h21.943
			c8.673,0,15.673-7.001,15.673-15.673C512,247.327,504.999,240.327,496.327,240.327z"/>
	</g>
</g>
<g>
	<g>
		<path d="M80.457,357.355c-4.284-7.523-14.002-10.031-21.42-5.747L40.02,362.58c-7.523,4.284-10.031,13.897-5.747,21.42
			c4.284,7.523,13.897,10.031,21.42,5.747l19.017-10.971C82.233,374.491,84.741,364.878,80.457,357.355z"/>
	</g>
</g>
<g>
	<g>
		<path d="M477.727,128c-4.284-7.523-13.897-10.031-21.42-5.747l-19.017,10.971c-7.523,4.284-10.031,13.897-5.747,21.42
			c4.389,7.419,13.897,10.031,21.42,5.747l19.017-10.971C479.504,145.136,482.011,135.523,477.727,128z"/>
	</g>
</g>
<g>
	<g>
		<path d="M154.645,431.543c-7.523-4.284-17.032-1.776-21.42,5.747l-10.971,19.017c-4.284,7.523-1.776,17.032,5.747,21.42
			c7.523,4.284,17.032,1.776,21.42-5.747l10.971-19.017C164.676,445.44,162.168,435.931,154.645,431.543z"/>
	</g>
</g>
<g>
	<g>
		<path d="M384,34.273c-7.523-4.284-17.032-1.776-21.42,5.747l-10.971,19.017c-4.284,7.419-1.776,17.032,5.747,21.42
			c7.523,4.284,17.032,1.776,21.42-5.747l10.971-19.017C394.031,48.17,391.523,38.661,384,34.273z"/>
	</g>
</g>
<g>
</g>
<g>
</g>
<g>
</g>
<g>
</g>
<g>
</g>
<g>
</g>
<g>
</g>
<g>
</g>
<g>
</g>
<g>
</g>
<g>
</g>
<g>
</g>
<g>
</g>
<g>
</g>
<g>
</g>
</svg>
